<mxfile host="app.diagrams.net" modified="2024-03-08T12:13:05.657Z" agent="Mozilla/5.0 (Windows NT 10.0; Win64; x64) AppleWebKit/537.36 (KHTML, like Gecko) Chrome/122.0.0.0 Safari/537.36" version="22.1.17" etag="Vy7Fsaj0HVx0deB5X5ZI" type="github">
  <diagram name="Page-1" id="s1O7uS0EEhbFeqXsOJMP">
    <mxGraphModel>
      <root>
        <mxCell id="0" />
        <mxCell id="1" parent="0" />
      </root>
    </mxGraphModel>
  </diagram>
</mxfile>
